<?xml version="1.0" encoding="UTF-8" standalone="no"?>
<!DOCTYPE svg PUBLIC "-//W3C//DTD SVG 1.1//EN"
 "http://www.w3.org/Graphics/SVG/1.1/DTD/svg11.dtd">
<!-- Generated by graphviz version 2.26.3 (20100126.1600)
 -->
<!-- Title: _anonymous_0 Pages: 1 -->
<svg width="775pt" height="268pt"
 viewBox="0.00 0.00 775.00 268.00" xmlns="http://www.w3.org/2000/svg" xmlns:xlink="http://www.w3.org/1999/xlink">
<g id="graph1" class="graph" transform="scale(1 1) rotate(0) translate(4 264)">
<title>_anonymous_0</title>
<polygon fill="white" stroke="white" points="-4,5 -4,-264 772,-264 772,5 -4,5"/>
<!-- /home/username -->
<g id="node1" class="node"><title>/home/username</title>
<ellipse fill="none" stroke="red" cx="290" cy="-93" rx="92.839" ry="18.3848"/>
<text text-anchor="middle" x="290" y="-89.4" font-family="Times Roman,serif" font-size="14.00">/home/username</text>
</g>
<!-- /home/username/Desktop -->
<g id="node15" class="node"><title>/home/username/Desktop</title>
<ellipse fill="none" stroke="black" cx="137" cy="-19" rx="137.179" ry="18.3848"/>
<text text-anchor="middle" x="137" y="-15.4" font-family="Times Roman,serif" font-size="14.00">/home/username/Desktop</text>
</g>
<!-- /home/username&#45;&gt;/home/username/Desktop -->
<g id="edge14" class="edge"><title>/home/username&#45;&gt;/home/username/Desktop</title>
<path fill="none" stroke="black" d="M254.514,-75.8369C233.255,-65.5549 205.997,-52.3711 183.086,-41.2899"/>
<polygon fill="black" stroke="black" points="184.417,-38.0459 173.891,-36.8426 181.369,-44.3475 184.417,-38.0459"/>
</g>
<!-- /home/username/Documents -->
<g id="node17" class="node"><title>/home/username/Documents</title>
<ellipse fill="none" stroke="black" cx="444" cy="-19" rx="152.028" ry="18.3848"/>
<text text-anchor="middle" x="444" y="-15.4" font-family="Times Roman,serif" font-size="14.00">/home/username/Documents</text>
</g>
<!-- /home/username&#45;&gt;/home/username/Documents -->
<g id="edge16" class="edge"><title>/home/username&#45;&gt;/home/username/Documents</title>
<path fill="none" stroke="black" d="M325.718,-75.8369C347.037,-65.5924 374.352,-52.4673 397.36,-41.4114"/>
<polygon fill="black" stroke="black" points="399.101,-44.4582 406.598,-36.9724 396.069,-38.1488 399.101,-44.4582"/>
</g>
<!-- / -->
<g id="node2" class="node"><title>/</title>
<ellipse fill="none" stroke="black" cx="580" cy="-241" rx="27" ry="18.3848"/>
<text text-anchor="middle" x="580" y="-237.4" font-family="Times Roman,serif" font-size="14.00">/</text>
</g>
<!-- /home -->
<g id="node4" class="node"><title>/home</title>
<ellipse fill="none" stroke="black" cx="492" cy="-167" rx="41.2167" ry="18.3848"/>
<text text-anchor="middle" x="492" y="-163.4" font-family="Times Roman,serif" font-size="14.00">/home</text>
</g>
<!-- /&#45;&gt;/home -->
<g id="edge2" class="edge"><title>/&#45;&gt;/home</title>
<path fill="none" stroke="black" d="M562.614,-226.38C550.304,-216.028 533.541,-201.933 519.437,-190.072"/>
<polygon fill="black" stroke="black" points="521.4,-187.15 511.494,-183.393 516.895,-192.508 521.4,-187.15"/>
</g>
<!-- /bin -->
<g id="node6" class="node"><title>/bin</title>
<ellipse fill="none" stroke="black" cx="580" cy="-167" rx="29.1951" ry="18.3848"/>
<text text-anchor="middle" x="580" y="-163.4" font-family="Times Roman,serif" font-size="14.00">/bin</text>
</g>
<!-- /&#45;&gt;/bin -->
<g id="edge4" class="edge"><title>/&#45;&gt;/bin</title>
<path fill="none" stroke="black" d="M580,-222.327C580,-214.264 580,-204.648 580,-195.711"/>
<polygon fill="black" stroke="black" points="583.5,-195.667 580,-185.667 576.5,-195.667 583.5,-195.667"/>
</g>
<!-- /stage -->
<g id="node8" class="node"><title>/stage</title>
<ellipse fill="none" stroke="black" cx="668" cy="-167" rx="41.2167" ry="18.3848"/>
<text text-anchor="middle" x="668" y="-163.4" font-family="Times Roman,serif" font-size="14.00">/stage</text>
</g>
<!-- /&#45;&gt;/stage -->
<g id="edge6" class="edge"><title>/&#45;&gt;/stage</title>
<path fill="none" stroke="black" d="M597.386,-226.38C609.696,-216.028 626.459,-201.933 640.563,-190.072"/>
<polygon fill="black" stroke="black" points="643.105,-192.508 648.506,-183.393 638.6,-187.15 643.105,-192.508"/>
</g>
<!-- /home&#45;&gt;/home/username -->
<g id="edge10" class="edge"><title>/home&#45;&gt;/home/username</title>
<path fill="none" stroke="black" d="M459.992,-155.274C428.948,-143.902 381.244,-126.426 344.264,-112.879"/>
<polygon fill="black" stroke="black" points="345.22,-109.502 334.627,-109.348 342.813,-116.075 345.22,-109.502"/>
</g>
<!-- /home/beu -->
<g id="node10" class="node"><title>/home/beu</title>
<ellipse fill="none" stroke="black" cx="492" cy="-93" rx="91.2168" ry="18.3848"/>
<text text-anchor="middle" x="492" y="-89.4" font-family="Times Roman,serif" font-size="14.00">/home/beu</text>
</g>
<!-- /home&#45;&gt;/home/beu -->
<g id="edge8" class="edge"><title>/home&#45;&gt;/home/beu</title>
<path fill="none" stroke="black" d="M492,-148.327C492,-140.264 492,-130.648 492,-121.711"/>
<polygon fill="black" stroke="black" points="495.5,-121.667 492,-111.667 488.5,-121.667 495.5,-121.667"/>
</g>
<!-- /home/borja -->
<g id="node13" class="node"><title>/home/borja</title>
<ellipse fill="none" stroke="black" cx="684" cy="-93" rx="82.939" ry="18.3848"/>
<text text-anchor="middle" x="684" y="-89.4" font-family="Times Roman,serif" font-size="14.00">/home/borja</text>
</g>
<!-- /home&#45;&gt;/home/borja -->
<g id="edge12" class="edge"><title>/home&#45;&gt;/home/borja</title>
<path fill="none" stroke="black" d="M523.275,-154.946C552.9,-143.528 597.916,-126.178 632.779,-112.742"/>
<polygon fill="black" stroke="black" points="634.249,-115.926 642.321,-109.064 631.732,-109.394 634.249,-115.926"/>
</g>
</g>
</svg>
